<svg xmlns="http://www.w3.org/2000/svg" xmlns:xlink="http://www.w3.org/1999/xlink" width="410" zoomAndPan="magnify" viewBox="0 0 307.5 80.999996" height="108" preserveAspectRatio="xMidYMid meet" version="1.0"><defs><g/><clipPath id="acaed1e72d"><path d="M 0 1.847656 L 59 1.847656 L 59 63.996094 L 0 63.996094 Z M 0 1.847656 " clip-rule="nonzero"/></clipPath><clipPath id="e5090bd59a"><path d="M 33.980469 30.800781 L 7.578125 30.800781 C 6.554688 30.800781 5.8125 29.824219 6.089844 28.835938 L 13.335938 2.976562 C 13.523438 2.308594 14.132812 1.847656 14.824219 1.847656 L 41.230469 1.847656 C 42.253906 1.847656 42.996094 2.828125 42.71875 3.8125 L 35.46875 29.671875 C 35.28125 30.339844 34.671875 30.800781 33.980469 30.800781 Z M 16.832031 50.320312 L 20.5625 37.007812 C 20.839844 36.019531 20.097656 35.039062 19.074219 35.039062 L 5.503906 35.039062 C 4.808594 35.039062 4.203125 35.503906 4.015625 36.167969 L 0.28125 49.484375 C 0.00390625 50.472656 0.746094 51.449219 1.769531 51.449219 L 15.34375 51.449219 C 16.035156 51.449219 16.644531 50.988281 16.832031 50.320312 Z M 23.699219 36.167969 L 16.449219 62.027344 C 16.175781 63.015625 16.914062 63.992188 17.9375 63.992188 L 44.34375 63.992188 C 45.035156 63.992188 45.644531 63.53125 45.832031 62.863281 L 53.078125 37.007812 C 53.355469 36.019531 52.613281 35.039062 51.589844 35.039062 L 25.1875 35.039062 C 24.496094 35.039062 23.886719 35.503906 23.699219 36.167969 Z M 42.335938 15.523438 L 38.605469 28.835938 C 38.328125 29.824219 39.070312 30.800781 40.09375 30.800781 L 53.664062 30.800781 C 54.359375 30.800781 54.96875 30.339844 55.15625 29.671875 L 58.886719 16.359375 C 59.164062 15.371094 58.421875 14.390625 57.398438 14.390625 L 43.824219 14.390625 C 43.132812 14.390625 42.523438 14.855469 42.335938 15.523438 Z M 42.335938 15.523438 " clip-rule="nonzero"/></clipPath><linearGradient x1="114.296461" gradientTransform="matrix(0.124168, 0, 0, 0.124291, 0.223503, 1.848147)" y1="-47.633924" x2="358.610879" gradientUnits="userSpaceOnUse" y2="547.607288" id="2625e34621"><stop stop-opacity="1" stop-color="rgb(0%, 98.799133%, 65.899658%)" offset="0"/><stop stop-opacity="1" stop-color="rgb(0%, 98.799133%, 65.899658%)" offset="0.0625"/><stop stop-opacity="1" stop-color="rgb(0.0213623%, 98.773193%, 65.965271%)" offset="0.09375"/><stop stop-opacity="1" stop-color="rgb(0.100708%, 98.677063%, 66.210938%)" offset="0.101563"/><stop stop-opacity="1" stop-color="rgb(0.216675%, 98.536682%, 66.571045%)" offset="0.109375"/><stop stop-opacity="1" stop-color="rgb(0.332642%, 98.396301%, 66.929626%)" offset="0.117188"/><stop stop-opacity="1" stop-color="rgb(0.448608%, 98.25592%, 67.289734%)" offset="0.125"/><stop stop-opacity="1" stop-color="rgb(0.564575%, 98.117065%, 67.649841%)" offset="0.132812"/><stop stop-opacity="1" stop-color="rgb(0.679016%, 97.976685%, 68.008423%)" offset="0.140625"/><stop stop-opacity="1" stop-color="rgb(0.794983%, 97.836304%, 68.36853%)" offset="0.148438"/><stop stop-opacity="1" stop-color="rgb(0.91095%, 97.695923%, 68.727112%)" offset="0.15625"/><stop stop-opacity="1" stop-color="rgb(1.026917%, 97.555542%, 69.087219%)" offset="0.164062"/><stop stop-opacity="1" stop-color="rgb(1.142883%, 97.415161%, 69.445801%)" offset="0.171875"/><stop stop-opacity="1" stop-color="rgb(1.25885%, 97.27478%, 69.805908%)" offset="0.179688"/><stop stop-opacity="1" stop-color="rgb(1.374817%, 97.135925%, 70.16449%)" offset="0.1875"/><stop stop-opacity="1" stop-color="rgb(1.490784%, 96.995544%, 70.524597%)" offset="0.195313"/><stop stop-opacity="1" stop-color="rgb(1.60675%, 96.855164%, 70.883179%)" offset="0.203125"/><stop stop-opacity="1" stop-color="rgb(1.722717%, 96.714783%, 71.243286%)" offset="0.210938"/><stop stop-opacity="1" stop-color="rgb(1.838684%, 96.574402%, 71.603394%)" offset="0.21875"/><stop stop-opacity="1" stop-color="rgb(1.954651%, 96.434021%, 71.961975%)" offset="0.226563"/><stop stop-opacity="1" stop-color="rgb(2.070618%, 96.29364%, 72.322083%)" offset="0.234375"/><stop stop-opacity="1" stop-color="rgb(2.186584%, 96.153259%, 72.680664%)" offset="0.242188"/><stop stop-opacity="1" stop-color="rgb(2.302551%, 96.014404%, 73.040771%)" offset="0.25"/><stop stop-opacity="1" stop-color="rgb(2.418518%, 95.874023%, 73.399353%)" offset="0.257812"/><stop stop-opacity="1" stop-color="rgb(2.534485%, 95.733643%, 73.75946%)" offset="0.265625"/><stop stop-opacity="1" stop-color="rgb(2.650452%, 95.593262%, 74.118042%)" offset="0.273438"/><stop stop-opacity="1" stop-color="rgb(2.766418%, 95.452881%, 74.478149%)" offset="0.281113"/><stop stop-opacity="1" stop-color="rgb(2.824402%, 95.38269%, 74.658203%)" offset="0.28125"/><stop stop-opacity="1" stop-color="rgb(2.882385%, 95.3125%, 74.836731%)" offset="0.289062"/><stop stop-opacity="1" stop-color="rgb(2.998352%, 95.172119%, 75.196838%)" offset="0.296875"/><stop stop-opacity="1" stop-color="rgb(3.114319%, 95.031738%, 75.556946%)" offset="0.304688"/><stop stop-opacity="1" stop-color="rgb(3.230286%, 94.892883%, 75.915527%)" offset="0.3125"/><stop stop-opacity="1" stop-color="rgb(3.346252%, 94.752502%, 76.275635%)" offset="0.320312"/><stop stop-opacity="1" stop-color="rgb(3.462219%, 94.612122%, 76.634216%)" offset="0.328125"/><stop stop-opacity="1" stop-color="rgb(3.578186%, 94.471741%, 76.994324%)" offset="0.335938"/><stop stop-opacity="1" stop-color="rgb(3.694153%, 94.33136%, 77.352905%)" offset="0.34375"/><stop stop-opacity="1" stop-color="rgb(3.81012%, 94.190979%, 77.713013%)" offset="0.351562"/><stop stop-opacity="1" stop-color="rgb(3.926086%, 94.050598%, 78.071594%)" offset="0.359375"/><stop stop-opacity="1" stop-color="rgb(4.042053%, 93.911743%, 78.431702%)" offset="0.367188"/><stop stop-opacity="1" stop-color="rgb(4.15802%, 93.771362%, 78.790283%)" offset="0.375"/><stop stop-opacity="1" stop-color="rgb(4.273987%, 93.630981%, 79.150391%)" offset="0.382812"/><stop stop-opacity="1" stop-color="rgb(4.389954%, 93.490601%, 79.510498%)" offset="0.390625"/><stop stop-opacity="1" stop-color="rgb(4.50592%, 93.35022%, 79.86908%)" offset="0.398438"/><stop stop-opacity="1" stop-color="rgb(4.621887%, 93.209839%, 80.229187%)" offset="0.40625"/><stop stop-opacity="1" stop-color="rgb(4.737854%, 93.069458%, 80.587769%)" offset="0.414062"/><stop stop-opacity="1" stop-color="rgb(4.853821%, 92.929077%, 80.947876%)" offset="0.421875"/><stop stop-opacity="1" stop-color="rgb(4.969788%, 92.790222%, 81.306458%)" offset="0.429688"/><stop stop-opacity="1" stop-color="rgb(5.085754%, 92.649841%, 81.666565%)" offset="0.4375"/><stop stop-opacity="1" stop-color="rgb(5.201721%, 92.50946%, 82.025146%)" offset="0.445312"/><stop stop-opacity="1" stop-color="rgb(5.317688%, 92.36908%, 82.385254%)" offset="0.453125"/><stop stop-opacity="1" stop-color="rgb(5.433655%, 92.228699%, 82.743835%)" offset="0.460938"/><stop stop-opacity="1" stop-color="rgb(5.549622%, 92.088318%, 83.103943%)" offset="0.46875"/><stop stop-opacity="1" stop-color="rgb(5.665588%, 91.947937%, 83.46405%)" offset="0.476562"/><stop stop-opacity="1" stop-color="rgb(5.781555%, 91.807556%, 83.822632%)" offset="0.484375"/><stop stop-opacity="1" stop-color="rgb(5.897522%, 91.668701%, 84.182739%)" offset="0.492188"/><stop stop-opacity="1" stop-color="rgb(6.013489%, 91.52832%, 84.541321%)" offset="0.5"/><stop stop-opacity="1" stop-color="rgb(6.129456%, 91.387939%, 84.901428%)" offset="0.507812"/><stop stop-opacity="1" stop-color="rgb(6.245422%, 91.247559%, 85.26001%)" offset="0.515625"/><stop stop-opacity="1" stop-color="rgb(6.361389%, 91.107178%, 85.620117%)" offset="0.523438"/><stop stop-opacity="1" stop-color="rgb(6.477356%, 90.966797%, 85.978699%)" offset="0.53125"/><stop stop-opacity="1" stop-color="rgb(6.593323%, 90.826416%, 86.338806%)" offset="0.539062"/><stop stop-opacity="1" stop-color="rgb(6.70929%, 90.687561%, 86.697388%)" offset="0.546875"/><stop stop-opacity="1" stop-color="rgb(6.825256%, 90.54718%, 87.057495%)" offset="0.554688"/><stop stop-opacity="1" stop-color="rgb(6.941223%, 90.406799%, 87.417603%)" offset="0.5625"/><stop stop-opacity="1" stop-color="rgb(7.05719%, 90.266418%, 87.776184%)" offset="0.570312"/><stop stop-opacity="1" stop-color="rgb(7.171631%, 90.126038%, 88.136292%)" offset="0.578125"/><stop stop-opacity="1" stop-color="rgb(7.287598%, 89.985657%, 88.494873%)" offset="0.585938"/><stop stop-opacity="1" stop-color="rgb(7.403564%, 89.845276%, 88.85498%)" offset="0.59375"/><stop stop-opacity="1" stop-color="rgb(7.519531%, 89.704895%, 89.213562%)" offset="0.601562"/><stop stop-opacity="1" stop-color="rgb(7.635498%, 89.56604%, 89.573669%)" offset="0.609375"/><stop stop-opacity="1" stop-color="rgb(7.751465%, 89.425659%, 89.932251%)" offset="0.617188"/><stop stop-opacity="1" stop-color="rgb(7.867432%, 89.285278%, 90.292358%)" offset="0.625"/><stop stop-opacity="1" stop-color="rgb(7.983398%, 89.144897%, 90.65094%)" offset="0.632812"/><stop stop-opacity="1" stop-color="rgb(8.099365%, 89.004517%, 91.011047%)" offset="0.640625"/><stop stop-opacity="1" stop-color="rgb(8.215332%, 88.864136%, 91.371155%)" offset="0.648438"/><stop stop-opacity="1" stop-color="rgb(8.331299%, 88.723755%, 91.729736%)" offset="0.65625"/><stop stop-opacity="1" stop-color="rgb(8.447266%, 88.583374%, 92.089844%)" offset="0.664062"/><stop stop-opacity="1" stop-color="rgb(8.563232%, 88.444519%, 92.448425%)" offset="0.671875"/><stop stop-opacity="1" stop-color="rgb(8.679199%, 88.304138%, 92.808533%)" offset="0.679688"/><stop stop-opacity="1" stop-color="rgb(8.795166%, 88.163757%, 93.167114%)" offset="0.6875"/><stop stop-opacity="1" stop-color="rgb(8.911133%, 88.023376%, 93.527222%)" offset="0.695312"/><stop stop-opacity="1" stop-color="rgb(9.0271%, 87.882996%, 93.885803%)" offset="0.703125"/><stop stop-opacity="1" stop-color="rgb(9.143066%, 87.742615%, 94.245911%)" offset="0.710938"/><stop stop-opacity="1" stop-color="rgb(9.259033%, 87.602234%, 94.604492%)" offset="0.71875"/><stop stop-opacity="1" stop-color="rgb(9.375%, 87.463379%, 94.9646%)" offset="0.718887"/><stop stop-opacity="1" stop-color="rgb(9.432983%, 87.393188%, 95.144653%)" offset="0.726562"/><stop stop-opacity="1" stop-color="rgb(9.490967%, 87.322998%, 95.324707%)" offset="0.734375"/><stop stop-opacity="1" stop-color="rgb(9.606934%, 87.182617%, 95.683289%)" offset="0.742188"/><stop stop-opacity="1" stop-color="rgb(9.7229%, 87.042236%, 96.043396%)" offset="0.75"/><stop stop-opacity="1" stop-color="rgb(9.838867%, 86.901855%, 96.401978%)" offset="0.757812"/><stop stop-opacity="1" stop-color="rgb(9.954834%, 86.761475%, 96.762085%)" offset="0.765625"/><stop stop-opacity="1" stop-color="rgb(10.070801%, 86.621094%, 97.120667%)" offset="0.773438"/><stop stop-opacity="1" stop-color="rgb(10.186768%, 86.480713%, 97.480774%)" offset="0.78125"/><stop stop-opacity="1" stop-color="rgb(10.302734%, 86.341858%, 97.839355%)" offset="0.789062"/><stop stop-opacity="1" stop-color="rgb(10.418701%, 86.201477%, 98.199463%)" offset="0.796875"/><stop stop-opacity="1" stop-color="rgb(10.534668%, 86.061096%, 98.558044%)" offset="0.804688"/><stop stop-opacity="1" stop-color="rgb(10.650635%, 85.920715%, 98.918152%)" offset="0.8125"/><stop stop-opacity="1" stop-color="rgb(10.766602%, 85.780334%, 99.278259%)" offset="0.820312"/><stop stop-opacity="1" stop-color="rgb(10.882568%, 85.639954%, 99.636841%)" offset="0.828125"/><stop stop-opacity="1" stop-color="rgb(10.969543%, 85.534668%, 99.908447%)" offset="0.84375"/><stop stop-opacity="1" stop-color="rgb(10.998535%, 85.499573%, 100%)" offset="0.875"/><stop stop-opacity="1" stop-color="rgb(10.998535%, 85.499573%, 100%)" offset="1"/></linearGradient></defs><g clip-path="url(#acaed1e72d)"><g clip-path="url(#e5090bd59a)"><path fill="url(#2625e34621)" d="M 0.00390625 1.847656 L 0.00390625 63.992188 L 59.152344 63.992188 L 59.152344 1.847656 Z M 0.00390625 1.847656 " fill-rule="nonzero"/></g></g><g fill="#ffffff" fill-opacity="1"><g transform="translate(69.076657, 46.210664)"><g><path d="M 14.21875 -15.375 L 27.875 0 L 20.40625 0 L 10.390625 -11.546875 L 7.953125 -9.0625 L 7.953125 0 L 1.875 0 L 1.875 -28.3125 L 7.953125 -28.3125 L 7.953125 -16.859375 L 19.328125 -28.3125 L 27.078125 -28.3125 Z M 14.21875 -15.375 "/></g></g></g><g fill="#ffffff" fill-opacity="1"><g transform="translate(96.908573, 46.210664)"><g><path d="M 22.53125 -19.8125 L 22.53125 0 L 17.765625 0 L 17.21875 -2.109375 C 16.445312 -1.078125 15.519531 -0.382812 14.4375 -0.03125 C 13.351562 0.3125 12.226562 0.484375 11.0625 0.484375 C 9.65625 0.484375 8.359375 0.210938 7.171875 -0.328125 C 5.984375 -0.878906 4.945312 -1.628906 4.0625 -2.578125 C 3.1875 -3.523438 2.503906 -4.628906 2.015625 -5.890625 C 1.523438 -7.148438 1.28125 -8.5 1.28125 -9.9375 C 1.28125 -11.375 1.523438 -12.722656 2.015625 -13.984375 C 2.503906 -15.253906 3.1875 -16.363281 4.0625 -17.3125 C 4.945312 -18.257812 5.984375 -19.003906 7.171875 -19.546875 C 8.359375 -20.097656 9.65625 -20.375 11.0625 -20.375 C 12.34375 -20.375 13.515625 -20.171875 14.578125 -19.765625 C 15.640625 -19.367188 16.519531 -18.734375 17.21875 -17.859375 L 17.765625 -19.8125 Z M 17.015625 -9.859375 C 17.015625 -10.898438 16.875 -11.769531 16.59375 -12.46875 C 16.3125 -13.175781 15.9375 -13.75 15.46875 -14.1875 C 15.007812 -14.632812 14.46875 -14.957031 13.84375 -15.15625 C 13.21875 -15.351562 12.546875 -15.453125 11.828125 -15.453125 C 11.109375 -15.453125 10.429688 -15.304688 9.796875 -15.015625 C 9.171875 -14.722656 8.617188 -14.328125 8.140625 -13.828125 C 7.660156 -13.335938 7.285156 -12.753906 7.015625 -12.078125 C 6.753906 -11.398438 6.625 -10.6875 6.625 -9.9375 C 6.625 -9.164062 6.753906 -8.445312 7.015625 -7.78125 C 7.285156 -7.125 7.660156 -6.546875 8.140625 -6.046875 C 8.617188 -5.554688 9.171875 -5.164062 9.796875 -4.875 C 10.429688 -4.582031 11.109375 -4.4375 11.828125 -4.4375 C 13.265625 -4.4375 14.476562 -4.878906 15.46875 -5.765625 C 16.46875 -6.660156 16.984375 -8.023438 17.015625 -9.859375 Z M 17.015625 -9.859375 "/></g></g></g><g fill="#ffffff" fill-opacity="1"><g transform="translate(120.587657, 46.210664)"><g><path d="M 12.09375 -19.8125 C 12.84375 -19.8125 13.671875 -19.703125 14.578125 -19.484375 C 15.484375 -19.273438 16.332031 -18.875 17.125 -18.28125 C 17.925781 -17.695312 18.597656 -16.882812 19.140625 -15.84375 C 19.691406 -14.8125 19.96875 -13.472656 19.96875 -11.828125 L 19.96875 0 L 14.421875 0 L 14.421875 -11.625 C 14.421875 -12.238281 14.316406 -12.753906 14.109375 -13.171875 C 13.910156 -13.597656 13.644531 -13.9375 13.3125 -14.1875 C 12.976562 -14.445312 12.597656 -14.632812 12.171875 -14.75 C 11.753906 -14.875 11.332031 -14.9375 10.90625 -14.9375 C 10.5625 -14.9375 10.179688 -14.875 9.765625 -14.75 C 9.347656 -14.632812 8.957031 -14.441406 8.59375 -14.171875 C 8.238281 -13.910156 7.941406 -13.566406 7.703125 -13.140625 C 7.460938 -12.710938 7.34375 -12.207031 7.34375 -11.625 L 7.34375 0 L 1.84375 0 L 1.84375 -19.8125 L 6.546875 -19.8125 L 7.34375 -18.296875 C 7.988281 -18.742188 8.707031 -19.109375 9.5 -19.390625 C 10.300781 -19.671875 11.164062 -19.8125 12.09375 -19.8125 Z M 12.09375 -19.8125 "/></g></g></g><g fill="#ffffff" fill-opacity="1"><g transform="translate(141.591355, 46.210664)"><g><path d="M 22.53125 -19.8125 L 22.53125 0 L 17.765625 0 L 17.21875 -2.109375 C 16.445312 -1.078125 15.519531 -0.382812 14.4375 -0.03125 C 13.351562 0.3125 12.226562 0.484375 11.0625 0.484375 C 9.65625 0.484375 8.359375 0.210938 7.171875 -0.328125 C 5.984375 -0.878906 4.945312 -1.628906 4.0625 -2.578125 C 3.1875 -3.523438 2.503906 -4.628906 2.015625 -5.890625 C 1.523438 -7.148438 1.28125 -8.5 1.28125 -9.9375 C 1.28125 -11.375 1.523438 -12.722656 2.015625 -13.984375 C 2.503906 -15.253906 3.1875 -16.363281 4.0625 -17.3125 C 4.945312 -18.257812 5.984375 -19.003906 7.171875 -19.546875 C 8.359375 -20.097656 9.65625 -20.375 11.0625 -20.375 C 12.34375 -20.375 13.515625 -20.171875 14.578125 -19.765625 C 15.640625 -19.367188 16.519531 -18.734375 17.21875 -17.859375 L 17.765625 -19.8125 Z M 17.015625 -9.859375 C 17.015625 -10.898438 16.875 -11.769531 16.59375 -12.46875 C 16.3125 -13.175781 15.9375 -13.75 15.46875 -14.1875 C 15.007812 -14.632812 14.46875 -14.957031 13.84375 -15.15625 C 13.21875 -15.351562 12.546875 -15.453125 11.828125 -15.453125 C 11.109375 -15.453125 10.429688 -15.304688 9.796875 -15.015625 C 9.171875 -14.722656 8.617188 -14.328125 8.140625 -13.828125 C 7.660156 -13.335938 7.285156 -12.753906 7.015625 -12.078125 C 6.753906 -11.398438 6.625 -10.6875 6.625 -9.9375 C 6.625 -9.164062 6.753906 -8.445312 7.015625 -7.78125 C 7.285156 -7.125 7.660156 -6.546875 8.140625 -6.046875 C 8.617188 -5.554688 9.171875 -5.164062 9.796875 -4.875 C 10.429688 -4.582031 11.109375 -4.4375 11.828125 -4.4375 C 13.265625 -4.4375 14.476562 -4.878906 15.46875 -5.765625 C 16.46875 -6.660156 16.984375 -8.023438 17.015625 -9.859375 Z M 17.015625 -9.859375 "/></g></g></g><g fill="#00ffc2" fill-opacity="1"><g transform="translate(165.271804, 46.210664)"><g><path d="M 19.609375 -15.421875 C 20.722656 -14.640625 21.613281 -13.644531 22.28125 -12.4375 C 22.945312 -11.226562 23.28125 -9.890625 23.28125 -8.421875 C 23.28125 -7.253906 23.050781 -6.15625 22.59375 -5.125 C 22.144531 -4.101562 21.535156 -3.210938 20.765625 -2.453125 C 19.992188 -1.691406 19.09375 -1.09375 18.0625 -0.65625 C 17.039062 -0.21875 15.945312 0 14.78125 0 L 1.921875 0 L 1.921875 -28.3125 L 14.375 -28.3125 C 15.4375 -28.3125 16.429688 -28.101562 17.359375 -27.6875 C 18.296875 -27.28125 19.117188 -26.726562 19.828125 -26.03125 C 20.535156 -25.34375 21.085938 -24.53125 21.484375 -23.59375 C 21.878906 -22.664062 22.078125 -21.671875 22.078125 -20.609375 C 22.078125 -19.460938 21.859375 -18.457031 21.421875 -17.59375 C 20.984375 -16.726562 20.378906 -16.003906 19.609375 -15.421875 Z M 7.984375 -17.6875 L 14.375 -17.6875 C 15.09375 -17.6875 15.703125 -17.9375 16.203125 -18.4375 C 16.710938 -18.945312 16.96875 -19.5625 16.96875 -20.28125 C 16.96875 -21 16.710938 -21.597656 16.203125 -22.078125 C 15.703125 -22.554688 15.09375 -22.796875 14.375 -22.796875 L 7.984375 -22.796875 Z M 14.78125 -5.46875 C 15.570312 -5.46875 16.25 -5.804688 16.8125 -6.484375 C 17.375 -7.171875 17.65625 -7.960938 17.65625 -8.859375 C 17.65625 -9.796875 17.375 -10.582031 16.8125 -11.21875 C 16.25 -11.863281 15.570312 -12.1875 14.78125 -12.1875 L 7.984375 -12.1875 L 7.984375 -5.46875 Z M 14.78125 -5.46875 "/></g></g></g><g fill="#00ffc2" fill-opacity="1"><g transform="translate(189.390131, 46.210664)"><g><path d="M 22.53125 -19.8125 L 22.53125 0 L 17.765625 0 L 17.21875 -2.109375 C 16.445312 -1.078125 15.519531 -0.382812 14.4375 -0.03125 C 13.351562 0.3125 12.226562 0.484375 11.0625 0.484375 C 9.65625 0.484375 8.359375 0.210938 7.171875 -0.328125 C 5.984375 -0.878906 4.945312 -1.628906 4.0625 -2.578125 C 3.1875 -3.523438 2.503906 -4.628906 2.015625 -5.890625 C 1.523438 -7.148438 1.28125 -8.5 1.28125 -9.9375 C 1.28125 -11.375 1.523438 -12.722656 2.015625 -13.984375 C 2.503906 -15.253906 3.1875 -16.363281 4.0625 -17.3125 C 4.945312 -18.257812 5.984375 -19.003906 7.171875 -19.546875 C 8.359375 -20.097656 9.65625 -20.375 11.0625 -20.375 C 12.34375 -20.375 13.515625 -20.171875 14.578125 -19.765625 C 15.640625 -19.367188 16.519531 -18.734375 17.21875 -17.859375 L 17.765625 -19.8125 Z M 17.015625 -9.859375 C 17.015625 -10.898438 16.875 -11.769531 16.59375 -12.46875 C 16.3125 -13.175781 15.9375 -13.75 15.46875 -14.1875 C 15.007812 -14.632812 14.46875 -14.957031 13.84375 -15.15625 C 13.21875 -15.351562 12.546875 -15.453125 11.828125 -15.453125 C 11.109375 -15.453125 10.429688 -15.304688 9.796875 -15.015625 C 9.171875 -14.722656 8.617188 -14.328125 8.140625 -13.828125 C 7.660156 -13.335938 7.285156 -12.753906 7.015625 -12.078125 C 6.753906 -11.398438 6.625 -10.6875 6.625 -9.9375 C 6.625 -9.164062 6.753906 -8.445312 7.015625 -7.78125 C 7.285156 -7.125 7.660156 -6.546875 8.140625 -6.046875 C 8.617188 -5.554688 9.171875 -5.164062 9.796875 -4.875 C 10.429688 -4.582031 11.109375 -4.4375 11.828125 -4.4375 C 13.265625 -4.4375 14.476562 -4.878906 15.46875 -5.765625 C 16.46875 -6.660156 16.984375 -8.023438 17.015625 -9.859375 Z M 17.015625 -9.859375 "/></g></g></g><g fill="#00ffc2" fill-opacity="1"><g transform="translate(213.069216, 46.210664)"><g><path d="M 12.09375 -19.8125 C 12.84375 -19.8125 13.671875 -19.703125 14.578125 -19.484375 C 15.484375 -19.273438 16.332031 -18.875 17.125 -18.28125 C 17.925781 -17.695312 18.597656 -16.882812 19.140625 -15.84375 C 19.691406 -14.8125 19.96875 -13.472656 19.96875 -11.828125 L 19.96875 0 L 14.421875 0 L 14.421875 -11.625 C 14.421875 -12.238281 14.316406 -12.753906 14.109375 -13.171875 C 13.910156 -13.597656 13.644531 -13.9375 13.3125 -14.1875 C 12.976562 -14.445312 12.597656 -14.632812 12.171875 -14.75 C 11.753906 -14.875 11.332031 -14.9375 10.90625 -14.9375 C 10.5625 -14.9375 10.179688 -14.875 9.765625 -14.75 C 9.347656 -14.632812 8.957031 -14.441406 8.59375 -14.171875 C 8.238281 -13.910156 7.941406 -13.566406 7.703125 -13.140625 C 7.460938 -12.710938 7.34375 -12.207031 7.34375 -11.625 L 7.34375 0 L 1.84375 0 L 1.84375 -19.8125 L 6.546875 -19.8125 L 7.34375 -18.296875 C 7.988281 -18.742188 8.707031 -19.109375 9.5 -19.390625 C 10.300781 -19.671875 11.164062 -19.8125 12.09375 -19.8125 Z M 12.09375 -19.8125 "/></g></g></g><g fill="#00ffc2" fill-opacity="1"><g transform="translate(234.072914, 46.210664)"><g><path d="M 12.78125 -11.578125 L 21.125 0 L 14.53125 0 L 9.3125 -7.90625 L 7.34375 -5.796875 L 7.34375 0 L 1.84375 0 L 1.84375 -29.15625 L 7.34375 -29.15625 L 7.34375 -12.984375 L 13.78125 -19.8125 L 20.484375 -19.8125 Z M 12.78125 -11.578125 "/></g></g></g></svg>